<svg id="Layer_1" data-name="Layer 1" xmlns="http://www.w3.org/2000/svg" width="320" height="80" viewBox="0 0 320 80">
  <defs>
    <style>
      .cls-1 {
        fill-opacity: 0;
      }

      .cls-2 {
        fill: #ea5128;
      }

      .cls-3 {
        fill: #406aaa;
      }

      .cls-4 {
        fill: #fae400;
      }
    </style>
  </defs>
  <title>pronil-logo-header-01</title>
  <rect class="cls-1" width="320" height="80"/>
  <g>
    <g>
      <path d="M114.21,23.37a12,12,0,0,1,5.38,4.47,12.47,12.47,0,0,1,1.87,6.91,12.52,12.52,0,0,1-1.87,6.89,11.91,11.91,0,0,1-5.38,4.49A20.11,20.11,0,0,1,106,47.69H97.77v10.5H91V21.81h15A20.11,20.11,0,0,1,114.21,23.37ZM112.37,40.1a6.52,6.52,0,0,0,2.29-5.35,6.54,6.54,0,0,0-2.29-5.35c-1.53-1.25-3.76-1.87-6.71-1.87H97.77V42h7.89C108.61,42,110.84,41.35,112.37,40.1Z"/>
      <path d="M155.14,58.19l-7.43-10.65c-.31,0-.78.05-1.41.05h-8.21v10.6h-6.75V21.81h15a20.12,20.12,0,0,1,8.24,1.56,12,12,0,0,1,5.38,4.47,12.47,12.47,0,0,1,1.87,6.91,12.37,12.37,0,0,1-2,7.07,11.93,11.93,0,0,1-5.74,4.42l8.36,11.95ZM152.7,29.4c-1.53-1.25-3.76-1.87-6.71-1.87h-7.9V42H146c2.95,0,5.18-.64,6.71-1.9A6.6,6.6,0,0,0,155,34.75,6.53,6.53,0,0,0,152.7,29.4Z"/>
      <path d="M179.41,56.29a17.89,17.89,0,0,1-7-6.7A18.42,18.42,0,0,1,169.84,40a18.42,18.42,0,0,1,2.55-9.59,17.89,17.89,0,0,1,7-6.7,22,22,0,0,1,20.06,0,18,18,0,0,1,7,6.68A18.34,18.34,0,0,1,209,40a18.34,18.34,0,0,1-2.55,9.61,18,18,0,0,1-7,6.68,22,22,0,0,1-20.06,0ZM196,51.15a11.86,11.86,0,0,0,4.58-4.58A13,13,0,0,0,202.22,40a13,13,0,0,0-1.66-6.57A11.86,11.86,0,0,0,196,28.85a14,14,0,0,0-13.09,0,11.77,11.77,0,0,0-4.57,4.58,13.76,13.76,0,0,0,0,13.14,11.77,11.77,0,0,0,4.57,4.58,14,14,0,0,0,13.09,0Z"/>
      <path d="M251.64,21.81V58.19h-5.56L226,33.56V58.19h-6.7V21.81h5.56l20.06,24.63V21.81Z"/>
      <path d="M264.53,21.81h6.76V58.19h-6.76Z"/>
      <path d="M284.22,21.81H291V52.47h19v5.72H284.22Z"/>
    </g>
    <g>
      <path class="cls-2" d="M18.71,21.29A18.71,18.71,0,1,0,37.42,40,18.71,18.71,0,0,0,18.71,21.29Zm0,29.94A11.23,11.23,0,1,1,29.93,40,11.23,11.23,0,0,1,18.71,51.23Z"/>
      <rect class="cls-3" x="43.65" y="43.74" width="37.42" height="14.97" rx="3.71" ry="3.71" transform="translate(124.73 102.45) rotate(180)"/>
      <rect class="cls-4" x="43.65" y="21.29" width="37.42" height="14.97" rx="3.71" ry="3.71" transform="translate(124.73 57.55) rotate(180)"/>
    </g>
  </g>
</svg>